<?xml version="1.0" encoding="utf-8"?>
<!-- Generator: Adobe Illustrator 19.0.0, SVG Export Plug-In . SVG Version: 6.00 Build 0)  -->
<!DOCTYPE svg PUBLIC "-//W3C//DTD SVG 1.1//EN" "http://www.w3.org/Graphics/SVG/1.1/DTD/svg11.dtd">
<svg version="1.1"
	 id="svg2" xmlns:dc="http://purl.org/dc/elements/1.1/" xmlns:cc="http://creativecommons.org/ns#" xmlns:rdf="http://www.w3.org/1999/02/22-rdf-syntax-ns#" xmlns:svg="http://www.w3.org/2000/svg"
	 xmlns="http://www.w3.org/2000/svg" xmlns:xlink="http://www.w3.org/1999/xlink" x="0px" y="0px" viewBox="881 306.5 1070 432"
	 style="enable-background:new 881 306.5 1070 432;" xml:space="preserve">
<style type="text/css">
	.st0{clip-path:url(#SVGID_2_);}
	.st1{fill:#6C5635;}
</style>
<g id="g10" transform="matrix(1.3333333,0,0,-1.3333333,0,1056)">
	<g id="g14">
		<g>
			<defs>
				<rect id="SVGID_1_" x="250.5" y="106.5" width="1632" height="1056"/>
			</defs>
			<clipPath id="SVGID_2_">
				<use xlink:href="#SVGID_1_"  style="overflow:visible;"/>
			</clipPath>
			<g id="g16" class="st0">
				<g id="g22" transform="translate(567.1475,121.3643)">
					<path id="path24" class="st1" d="M454.5,238.5v-5h-97.9v5h6.2c5.4,0,9.8,1,13.1,2.9c2.4,1.3,4.2,3.5,5.5,6.7
						c1,2.2,1.5,8,1.5,17.5v123.7c0,9.6-0.5,15.6-1.5,18c-1,2.4-3.1,4.5-6.2,6.3c-3.1,1.8-7.2,2.7-12.5,2.7h-6.2v5h97.9v-5h-6.2
						c-5.4,0-9.8-1-13.1-2.9c-2.4-1.3-4.3-3.5-5.6-6.7c-1-2.2-1.5-8-1.5-17.5V265.5c0-9.6,0.5-15.6,1.6-18c1.1-2.4,3.1-4.5,6.2-6.3
						c3.1-1.8,7.2-2.7,12.4-2.7H454.5z"/>
				</g>
				<g id="g26" transform="translate(674.5605,149.8877)">
					<path id="path28" class="st1" d="M454.5,238.5l4.3-3.3c-6.1-11.5-13.7-20-22.7-25.6c-9.1-5.6-18.7-8.4-29-8.4
						c-17.2,0-31,6.5-41.3,19.5c-10.3,13-15.5,28.6-15.5,46.9c0,17.6,4.7,33.1,14.2,46.5c11.4,16.2,27.1,24.2,47,24.2
						c13.4,0,24.1-3.4,32-10.1c7.9-6.7,11.8-14.3,11.8-22.6c0-5.3-1.6-9.5-4.8-12.6c-3.2-3.1-7.4-4.7-12.6-4.7
						c-5.5,0-10,1.8-13.6,5.4c-3.6,3.6-5.8,10.1-6.6,19.3c-0.6,5.8-1.9,9.9-4,12.2c-2.1,2.3-4.6,3.5-7.5,3.5
						c-4.5,0-8.2-2.3-11.4-7.1c-4.8-7.1-7.2-18-7.2-32.6c0-12.2,1.9-23.8,5.8-34.9c3.9-11.1,9.2-19.4,15.9-24.8c5.1-4,11.1-6,18-6
						c4.5,0,8.8,1.1,12.9,3.2C444.2,228.6,449,232.6,454.5,238.5"/>
				</g>
				<g id="g30" transform="translate(759.5654,119.6738)">
					<path id="path32" class="st1" d="M454.5,238.5c4.1-3.4,9.9-5.2,17.3-5.2c6.3,0,11.9,1.5,16.8,4.6c4.9,3.1,9.7,8.1,14.3,14.9
						l-4.2,3.4c-2.5-3.5-4.9-5.2-7.3-5.2c-1.2,0-2.2,0.4-3.1,1.1c-0.9,0.7-1.6,1.9-2.1,3.4c-0.5,1.5-0.7,5.2-0.7,11.2V317
						c0,13.9-0.6,22.9-1.9,26.7c-2.1,6.1-6.8,11.8-13.9,17c-7.2,5.2-16.9,7.8-29.2,7.8c-10.2,0-20-1.6-29.4-4.8
						c-9.4-3.2-16.8-7.9-22-13.9c-5.3-6-7.9-12.4-7.9-19c0-4.7,1.9-8.8,5.9-12.3c3.9-3.5,8.8-5.2,14.6-5.2c5.5,0,9.8,1.6,13.2,4.7
						c3.4,3.2,5.1,7,5.1,11.5c0,3.7-1.8,7.5-5.3,11.5c-2.6,2.9-3.9,5.2-3.9,7.2c0,2.2,1.2,4.1,3.6,5.8c3.9,2.7,8.8,4,14.9,4
						c3.7,0,7.1-0.9,10.1-2.8c3-1.9,5-4.1,6.1-6.6c1-2.5,1.6-8.7,1.6-18.4v-13c-28.6-13.1-47.1-23.7-55.6-31.6
						c-8.5-7.9-12.7-16.8-12.7-26.7c0-7.3,2.5-13.4,7.3-18.2c4.9-4.9,11.1-7.3,18.5-7.3c12.6,0,26.8,6.9,42.6,20.8
						C447.8,247.2,450.4,241.9,454.5,238.5 M430.8,256.6c-4.2,0-7.4,1.2-9.8,3.7c-3.1,3.2-4.6,7-4.6,11.2c0,5.1,1.8,10.1,5.4,15.1
						c5.5,7.5,13.8,14.5,25.1,21.1v-43.4C440.8,259.2,435.4,256.6,430.8,256.6"/>
				</g>
				<g id="g34" transform="translate(864.5557,231.9961)">
					<path id="path36" class="st1" d="M454.5,238.5l0.4-89.5c0-8.7,0.9-14.2,2.7-16.4c3-3.4,8.3-5,16.2-4.7v-5h-76.8v5
						c5.9,0.1,10,0.7,12.5,2c2.5,1.2,4.2,3,5.1,5.2c0.9,2.2,1.4,6.9,1.4,13.9v89.5h-18.7v13.7H416v9.6v6.5
						c0,13.3,4.9,24.4,14.6,33.3c9.8,8.9,22.9,13.3,39.6,13.3c11.4,0,19.8-2.1,25.3-6.3c5.5-4.2,8.2-8.9,8.2-14.1
						c0-4.1-1.7-7.7-5.1-10.8c-3.4-3.1-7.9-4.6-13.6-4.6c-4.8,0-8.6,1.2-11.4,3.7c-2.8,2.5-4.2,5.3-4.2,8.3c0,0.8,0.3,2.5,0.8,5.1
						c0.3,1.6,0.5,3,0.5,4.4c0,1.9-0.6,3.4-1.7,4.3c-1.5,1.4-3.3,2.1-5.4,2.1c-2.7,0-4.9-1.1-6.7-3.3c-1.8-2.2-2.7-5.8-2.7-10.7
						l0.1-24.4l0.1-16.6h19.4v-13.7H454.5z"/>
				</g>
				<g id="g38" transform="translate(981.8242,233.6436)">
					<path id="path40" class="st1" d="M454.5,238.5c-9.7,10.7-21.1,16.1-34.2,16.1c-15.7,0-29.5-6.4-41.2-19.2
						c-11.7-12.8-17.5-30-17.5-51.5c0-17.6,4-32.4,11.9-44.2c9.9-14.8,24.5-22.1,43.7-22.1c11.2,0,21,3,29.6,9
						c8.5,6,16.3,16.1,23.3,30.5l-4.7,3.1c-5.2-8.1-10.1-13.7-14.7-16.8c-4.6-3.1-9.6-4.7-15.3-4.7c-9,0-16.8,3.8-23.2,11.5
						c-8.4,10-13,23.6-13.9,40.7h71.8C469.4,211.9,464.2,227.8,454.5,238.5 M397.7,199.9v4.8c0,14.3,2.8,25.6,8.3,33.8
						c3.1,4.7,7.1,7.1,12,7.1c3.3,0,5.9-0.8,7.8-2.5c3.5-2.9,6-7.1,7.7-12.6c1.6-5.5,2.5-15.7,2.5-30.6H397.7z"/>
				</g>
				<path id="path42" class="st1" d="M1447.7,317.9H679.5v10.6h768.3V317.9z"/>
				<g id="g44" transform="translate(267.1836,231.584)">
					<path id="path46" class="st1" d="M454.5,238.5V116.7c0,0-30.3,4.5-42.3,35.6c-2.1,7.5-13.2,29,2.1,56.4
						C429.6,236,454.5,238.5,454.5,238.5"/>
				</g>
				<g id="g48" transform="translate(283.6143,109.5439)">
					<path id="path50" class="st1" d="M454.5,238.5l0.1,121.8c0,0,30.3-4.6,42.3-35.6c2.1-7.5,13.3-29-2.1-56.4
						C479.4,241,454.5,238.5,454.5,238.5"/>
				</g>
				<g id="g52" transform="translate(390.9287,231.6738)">
					<path id="path54" class="st1" d="M454.5,238.5V116.7c0,0-30.3,4.6-42.3,35.6c-2.1,7.5-13.3,29,2.1,56.4
						C429.7,236,454.5,238.5,454.5,238.5"/>
				</g>
				<g id="g56" transform="translate(407.3706,109.6328)">
					<path id="path58" class="st1" d="M454.5,238.5l0.1,121.8c0,0,30.3-4.6,42.3-35.7c2.1-7.5,13.2-29-2.1-56.4
						C479.4,241,454.5,238.5,454.5,238.5"/>
				</g>
				<path id="path60" class="st1" d="M688.7,297.7h5.1v-38.3h-5.1V297.7z"/>
				<g id="g62" transform="translate(247.542,20.8779)">
					<path id="path64" class="st1" d="M454.5,238.5v27.7h4.2v-3.9c2,3.1,5,4.6,8.8,4.6c1.7,0,3.2-0.3,4.6-0.9
						c1.4-0.6,2.5-1.4,3.1-2.4c0.7-1,1.2-2.1,1.5-3.5c0.2-0.9,0.3-2.4,0.3-4.6v-17h-4.7v16.9c0,1.9-0.2,3.4-0.6,4.3
						c-0.4,1-1,1.7-1.9,2.3c-0.9,0.5-2,0.8-3.3,0.8c-2,0-3.7-0.6-5.2-1.9c-1.5-1.3-2.2-3.7-2.2-7.2v-15.1H454.5z"/>
				</g>
				<g id="g66" transform="translate(275.4551,29.1973)">
					<path id="path68" class="st1" d="M454.5,238.5l4.6,0.7c0.2-1.9,1-3.3,2.2-4.3c1.2-1,2.9-1.5,5-1.5c2.2,0,3.8,0.5,4.8,1.3
						c1,0.9,1.6,1.9,1.6,3.1c0,1.1-0.4,1.9-1.4,2.5c-0.6,0.4-2.2,0.9-4.8,1.6c-3.5,0.9-5.9,1.6-7.2,2.2c-1.4,0.7-2.4,1.5-3,2.6
						c-0.7,1.1-1,2.4-1,3.7c0,1.2,0.3,2.4,0.9,3.4c0.6,1,1.3,1.9,2.3,2.6c0.7,0.5,1.7,1,3,1.3c1.3,0.4,2.6,0.6,4.1,0.6
						c2.2,0,4.1-0.3,5.8-0.9c1.7-0.6,2.9-1.5,3.7-2.5c0.8-1.1,1.3-2.5,1.6-4.3l-4.6-0.6c-0.2,1.4-0.8,2.5-1.8,3.3
						c-1,0.8-2.4,1.2-4.3,1.2c-2.2,0-3.7-0.4-4.6-1.1c-0.9-0.7-1.4-1.6-1.4-2.5c0-0.6,0.2-1.2,0.6-1.7c0.4-0.5,1-0.9,1.8-1.3
						c0.5-0.2,1.9-0.6,4.2-1.2c3.3-0.9,5.7-1.6,7-2.2c1.3-0.6,2.3-1.4,3.1-2.5c0.8-1.1,1.1-2.4,1.1-4c0-1.6-0.5-3.1-1.4-4.4
						c-0.9-1.4-2.2-2.5-4-3.2c-1.7-0.8-3.7-1.1-5.9-1.1c-3.6,0-6.4,0.8-8.3,2.2C456.2,233.3,455,235.5,454.5,238.5"/>
				</g>
				<g id="g70" transform="translate(314.3369,25.083)">
					<path id="path72" class="st1" d="M454.5,238.5l0.6-4.2c-1.3-0.3-2.5-0.4-3.6-0.4c-1.7,0-3,0.3-4,0.8c-0.9,0.5-1.6,1.3-2,2.1
						c-0.4,0.9-0.6,2.7-0.6,5.5v16h-3.4v3.7h3.4v6.9l4.7,2.8V262h4.8v-3.7h-4.8v-16.2c0-1.3,0.1-2.2,0.3-2.6
						c0.2-0.4,0.4-0.7,0.8-0.9c0.4-0.2,0.9-0.4,1.6-0.4C452.9,238.3,453.6,238.4,454.5,238.5"/>
				</g>
				<path id="path74" class="st1" d="M773.5,287.1h4.7v-27.7h-4.7V287.1z M773.5,297.7h4.7v-5.3h-4.7V297.7z"/>
				<g id="g76" transform="translate(341.0986,25.083)">
					<path id="path78" class="st1" d="M454.5,238.5l0.6-4.2c-1.3-0.3-2.5-0.4-3.6-0.4c-1.7,0-3,0.3-4,0.8c-0.9,0.5-1.6,1.3-2,2.1
						c-0.4,0.9-0.6,2.7-0.6,5.5v16h-3.5v3.7h3.5v6.9l4.7,2.8V262h4.8v-3.7h-4.8v-16.2c0-1.3,0.1-2.2,0.2-2.6
						c0.2-0.4,0.4-0.7,0.8-0.9c0.4-0.2,0.9-0.4,1.6-0.4C453,238.3,453.6,238.4,454.5,238.5"/>
				</g>
				<g id="g80" transform="translate(363.8936,20.8779)">
					<path id="path82" class="st1" d="M454.5,238.5v4.1c-2.2-3.2-5.1-4.7-8.8-4.7c-1.7,0-3.2,0.3-4.6,0.9c-1.4,0.6-2.5,1.4-3.2,2.4
						c-0.7,1-1.2,2.1-1.4,3.5c-0.2,0.9-0.3,2.4-0.3,4.4v17.2h4.7v-15.4c0-2.4,0.1-4.1,0.3-5c0.3-1.2,0.9-2.2,1.9-2.9
						c1-0.7,2.2-1.1,3.6-1.1c1.4,0,2.7,0.4,4,1.1c1.2,0.7,2.1,1.7,2.6,3c0.5,1.3,0.8,3.1,0.8,5.4v14.8h4.7v-27.7H454.5z"/>
				</g>
				<g id="g84" transform="translate(385.7485,25.083)">
					<path id="path86" class="st1" d="M454.5,238.5l0.6-4.2c-1.3-0.3-2.5-0.4-3.6-0.4c-1.7,0-3,0.3-4,0.8c-0.9,0.5-1.6,1.3-2,2.1
						c-0.4,0.9-0.6,2.7-0.6,5.5v16h-3.4v3.7h3.4v6.9l4.7,2.8V262h4.8v-3.7h-4.8v-16.2c0-1.3,0.1-2.2,0.2-2.6
						c0.2-0.4,0.4-0.7,0.8-0.9c0.4-0.2,0.9-0.4,1.6-0.4C452.9,238.3,453.6,238.4,454.5,238.5"/>
				</g>
				<g id="g88" transform="translate(393.498,34.709)">
					<path id="path90" class="st1" d="M454.5,238.5c0-3.5,0.8-6.2,2.3-8c1.6-1.8,3.5-2.7,5.8-2.7c2.3,0,4.3,0.9,5.8,2.7
						c1.5,1.8,2.3,4.5,2.3,8.1c0,3.4-0.8,6-2.3,7.8c-1.6,1.8-3.5,2.6-5.8,2.6c-2.3,0-4.3-0.9-5.8-2.6
						C455.3,244.7,454.5,242.1,454.5,238.5 M449.6,238.5c0,5.1,1.4,8.9,4.3,11.4c2.4,2.1,5.3,3.1,8.7,3.1c3.8,0,6.9-1.3,9.4-3.7
						c2.4-2.5,3.6-6,3.6-10.4c0-3.6-0.5-6.4-1.6-8.4c-1.1-2-2.6-3.6-4.7-4.8c-2-1.1-4.3-1.7-6.7-1.7c-3.9,0-7,1.2-9.4,3.7
						C450.8,230.3,449.6,233.9,449.6,238.5"/>
				</g>
				<g id="g92" transform="translate(438.1582,34.6934)">
					<path id="path94" class="st1" d="M454.5,238.5c0-3.5,0.7-6.2,2.3-7.9c1.5-1.8,3.3-2.7,5.3-2.7c2.1,0,3.8,0.9,5.3,2.5
						c1.4,1.7,2.2,4.2,2.2,7.7c0,3.8-0.7,6.6-2.2,8.4c-1.5,1.8-3.3,2.7-5.4,2.7c-2.1,0-3.9-0.8-5.3-2.6
						C455.2,244.9,454.5,242.2,454.5,238.5 M469.4,224.7v3.5c-1.8-2.7-4.4-4.1-7.8-4.1c-2.2,0-4.3,0.6-6.1,1.8
						c-1.9,1.2-3.3,2.9-4.3,5.1c-1,2.2-1.5,4.7-1.5,7.5c0,2.8,0.5,5.3,1.4,7.5c0.9,2.3,2.3,4,4.1,5.2c1.9,1.2,3.9,1.8,6.2,1.8
						c1.7,0,3.2-0.4,4.5-1.1c1.3-0.7,2.4-1.6,3.2-2.8V263h4.7v-38.3H469.4z"/>
				</g>
				<g id="g96" transform="translate(468.2944,37.4121)">
					<path id="path98" class="st1" d="M454.5,238.5h15.6c-0.2,2.4-0.8,4.1-1.8,5.3c-1.5,1.8-3.5,2.7-5.9,2.7c-2.2,0-4-0.7-5.5-2.2
						C455.5,242.9,454.7,240.9,454.5,238.5 M470,230.9l4.8-0.6c-0.8-2.8-2.2-5-4.3-6.6c-2.1-1.6-4.7-2.4-8-2.4
						c-4.1,0-7.3,1.3-9.7,3.7c-2.4,2.5-3.6,6-3.6,10.5c0,4.7,1.2,8.3,3.6,10.9c2.4,2.6,5.5,3.9,9.4,3.9c3.7,0,6.7-1.3,9.1-3.8
						c2.4-2.5,3.5-6.1,3.5-10.6c0-0.3,0-0.7,0-1.3h-20.7c0.2-3.1,1-5.4,2.6-7c1.5-1.6,3.5-2.5,5.8-2.5c1.7,0,3.2,0.5,4.4,1.4
						C468.3,227.5,469.3,228.9,470,230.9"/>
				</g>
				<path id="path100" class="st1" d="M949,297.7h4.7v-38.3H949V297.7z"/>
				<g id="g102" transform="translate(549.2021,34.3145)">
					<path id="path104" class="st1" d="M454.5,238.5l5.1-1.3c-1.1-4.2-3-7.3-5.7-9.5c-2.7-2.2-6.1-3.3-10.1-3.3
						c-4.1,0-7.5,0.8-10.1,2.5c-2.6,1.7-4.6,4.1-5.9,7.3c-1.3,3.2-2,6.6-2,10.3c0,4,0.8,7.5,2.3,10.4c1.5,3,3.7,5.2,6.5,6.8
						c2.8,1.5,5.9,2.3,9.3,2.3c3.8,0,7-1,9.7-2.9c2.6-2,4.4-4.7,5.5-8.2l-5-1.2c-0.9,2.8-2.2,4.8-3.9,6.1c-1.7,1.2-3.8,1.9-6.4,1.9
						c-2.9,0-5.4-0.7-7.4-2.1c-2-1.4-3.4-3.3-4.2-5.7c-0.8-2.4-1.2-4.8-1.2-7.3c0-3.3,0.5-6.1,1.4-8.5c0.9-2.4,2.4-4.2,4.4-5.4
						c2-1.2,4.2-1.8,6.5-1.8c2.8,0,5.2,0.8,7.2,2.5C452.5,232.8,453.8,235.3,454.5,238.5"/>
				</g>
				<g id="g106" transform="translate(577.749,34.8232)">
					<path id="path108" class="st1" d="M454.5,238.5c-1.7-0.7-4.3-1.3-7.7-1.8c-1.9-0.3-3.3-0.6-4.1-0.9c-0.8-0.3-1.4-0.8-1.9-1.5
						c-0.4-0.7-0.6-1.4-0.6-2.2c0-1.3,0.5-2.3,1.4-3.2c1-0.8,2.4-1.2,4.2-1.2c1.8,0,3.4,0.4,4.9,1.2c1.4,0.8,2.5,1.9,3.1,3.3
						c0.5,1.1,0.8,2.6,0.8,4.7L454.5,238.5z M454.9,228c-1.7-1.5-3.4-2.5-5-3.1c-1.6-0.6-3.4-0.9-5.2-0.9c-3,0-5.4,0.8-7.1,2.2
						c-1.6,1.5-2.5,3.4-2.5,5.7c0,1.3,0.3,2.6,0.9,3.7c0.6,1.1,1.4,2,2.4,2.7c1,0.7,2.1,1.2,3.4,1.6c0.9,0.2,2.3,0.5,4.2,0.7
						c3.8,0.5,6.6,1,8.4,1.6c0,0.6,0,1,0,1.2c0,1.9-0.5,3.2-1.3,4c-1.2,1-3,1.6-5.4,1.6c-2.2,0-3.9-0.4-4.9-1.2
						c-1.1-0.8-1.8-2.1-2.3-4.1l-4.7,0.6c0.4,1.9,1.1,3.5,2.1,4.8c1,1.2,2.3,2.1,4.2,2.8c1.8,0.6,3.9,1,6.3,1c2.4,0,4.3-0.3,5.8-0.8
						c1.5-0.6,2.6-1.3,3.3-2.1c0.7-0.8,1.2-1.9,1.5-3.2c0.1-0.8,0.2-2.2,0.2-4.3v-6.3c0-4.4,0.1-7.1,0.3-8.3
						c0.2-1.2,0.6-2.3,1.1-3.3h-4.9C455.4,225.6,455,226.7,454.9,228"/>
				</g>
				<g id="g110" transform="translate(590.8437,20.8779)">
					<path id="path112" class="st1" d="M454.5,238.5v24h-4.2v3.7h4.2v3c0,1.9,0.2,3.2,0.5,4.1c0.5,1.2,1.3,2.2,2.4,3
						c1.2,0.8,2.8,1.1,4.8,1.1c1.3,0,2.8-0.2,4.4-0.5l-0.7-4.1c-1,0.2-1.9,0.3-2.8,0.3c-1.4,0-2.4-0.3-3-0.9
						c-0.6-0.6-0.9-1.7-0.9-3.4v-2.6h5.4v-3.7h-5.4v-24H454.5z"/>
				</g>
				<g id="g114" transform="translate(612.1392,52.043)">
					<path id="path116" class="st1" d="M454.5,238.5l3.4,7.3h6.2l-5.7-7.3H454.5z M450.5,223.9h15.6c-0.2,2.4-0.8,4.1-1.8,5.3
						c-1.5,1.8-3.4,2.7-5.8,2.7c-2.2,0-4-0.7-5.5-2.2C451.5,228.2,450.7,226.3,450.5,223.9 M466,216.3l4.8-0.6
						c-0.8-2.8-2.2-5-4.3-6.6c-2.1-1.6-4.7-2.4-8-2.4c-4,0-7.3,1.3-9.6,3.7c-2.4,2.5-3.6,6-3.6,10.5c0,4.7,1.2,8.3,3.6,10.9
						c2.4,2.6,5.5,3.9,9.4,3.9c3.7,0,6.7-1.3,9.1-3.8c2.4-2.5,3.5-6.1,3.5-10.6c0-0.3,0-0.7,0-1.3h-20.7c0.2-3.1,1-5.4,2.6-7
						c1.6-1.6,3.5-2.5,5.8-2.5c1.7,0,3.2,0.5,4.4,1.4C464.3,212.8,465.3,214.3,466,216.3"/>
				</g>
				<g id="g118" transform="translate(652.3965,34.6934)">
					<path id="path120" class="st1" d="M454.5,238.5c0-3.5,0.7-6.2,2.2-7.9c1.5-1.8,3.3-2.7,5.3-2.7c2.1,0,3.8,0.9,5.3,2.5
						c1.4,1.7,2.2,4.2,2.2,7.7c0,3.8-0.7,6.6-2.2,8.4c-1.5,1.8-3.3,2.7-5.4,2.7c-2.1,0-3.9-0.8-5.3-2.6
						C455.2,244.9,454.5,242.2,454.5,238.5 M469.4,224.7v3.5c-1.8-2.7-4.4-4.1-7.8-4.1c-2.2,0-4.3,0.6-6.1,1.8
						c-1.8,1.2-3.3,2.9-4.3,5.1c-1,2.2-1.5,4.7-1.5,7.5c0,2.8,0.5,5.3,1.4,7.5c0.9,2.3,2.3,4,4.2,5.2c1.8,1.2,3.9,1.8,6.2,1.8
						c1.7,0,3.2-0.4,4.5-1.1c1.3-0.7,2.4-1.6,3.2-2.8V263h4.7v-38.3H469.4z"/>
				</g>
				<g id="g122" transform="translate(682.5537,37.4121)">
					<path id="path124" class="st1" d="M454.5,238.5h15.6c-0.2,2.4-0.8,4.1-1.8,5.3c-1.5,1.8-3.5,2.7-5.9,2.7c-2.2,0-4-0.7-5.5-2.2
						C455.5,242.9,454.7,240.9,454.5,238.5 M470,230.9l4.8-0.6c-0.8-2.8-2.2-5-4.3-6.6c-2.1-1.6-4.7-2.4-7.9-2.4
						c-4.1,0-7.3,1.3-9.7,3.7c-2.4,2.5-3.6,6-3.6,10.5c0,4.7,1.2,8.3,3.6,10.9c2.4,2.6,5.5,3.9,9.4,3.9c3.7,0,6.7-1.3,9.1-3.8
						c2.3-2.5,3.5-6.1,3.5-10.6c0-0.3,0-0.7,0-1.3h-20.7c0.2-3.1,1-5.4,2.6-7c1.6-1.6,3.5-2.5,5.8-2.5c1.8,0,3.2,0.5,4.5,1.4
						C468.3,227.5,469.3,228.9,470,230.9"/>
				</g>
				<g id="g126" transform="translate(751.5645,34.3145)">
					<path id="path128" class="st1" d="M454.5,238.5l5.1-1.3c-1.1-4.2-3-7.3-5.7-9.5c-2.7-2.2-6.1-3.3-10.1-3.3
						c-4.1,0-7.5,0.8-10.1,2.5c-2.6,1.7-4.6,4.1-5.9,7.3c-1.3,3.2-2,6.6-2,10.3c0,4,0.8,7.5,2.3,10.4c1.5,3,3.7,5.2,6.5,6.8
						c2.8,1.5,5.9,2.3,9.3,2.3c3.8,0,7.1-1,9.7-2.9c2.6-2,4.4-4.7,5.5-8.2l-5-1.2c-0.9,2.8-2.2,4.8-3.9,6.1
						c-1.7,1.2-3.8,1.9-6.4,1.9c-2.9,0-5.4-0.7-7.4-2.1c-2-1.4-3.4-3.3-4.2-5.7c-0.8-2.4-1.2-4.8-1.2-7.3c0-3.3,0.5-6.1,1.4-8.5
						c0.9-2.4,2.4-4.2,4.4-5.4c2-1.2,4.2-1.8,6.5-1.8c2.8,0,5.2,0.8,7.2,2.5C452.5,232.8,453.8,235.3,454.5,238.5"/>
				</g>
				<g id="g130" transform="translate(765.4473,34.709)">
					<path id="path132" class="st1" d="M454.5,238.5c0-3.5,0.8-6.2,2.3-8c1.6-1.8,3.5-2.7,5.8-2.7c2.3,0,4.3,0.9,5.8,2.7
						c1.5,1.8,2.3,4.5,2.3,8.1c0,3.4-0.8,6-2.4,7.8c-1.5,1.8-3.5,2.6-5.8,2.6c-2.4,0-4.3-0.9-5.8-2.6
						C455.3,244.7,454.5,242.1,454.5,238.5 M449.7,238.5c0,5.1,1.4,8.9,4.3,11.4c2.4,2.1,5.3,3.1,8.7,3.1c3.8,0,6.9-1.3,9.4-3.7
						c2.4-2.5,3.6-6,3.6-10.4c0-3.6-0.5-6.4-1.6-8.4c-1.1-2-2.7-3.6-4.7-4.8c-2-1.1-4.3-1.7-6.7-1.7c-3.9,0-7,1.2-9.4,3.7
						C450.9,230.3,449.7,233.9,449.7,238.5"/>
				</g>
				<g id="g134" transform="translate(790.2129,29.1973)">
					<path id="path136" class="st1" d="M454.5,238.5l4.6,0.7c0.3-1.9,1-3.3,2.2-4.3c1.2-1,2.9-1.5,5-1.5c2.2,0,3.8,0.5,4.8,1.3
						c1,0.9,1.6,1.9,1.6,3.1c0,1.1-0.5,1.9-1.4,2.5c-0.6,0.4-2.2,0.9-4.8,1.6c-3.5,0.9-5.8,1.6-7.2,2.2c-1.3,0.7-2.3,1.5-3,2.6
						c-0.7,1.1-1,2.4-1,3.7c0,1.2,0.3,2.4,0.9,3.4c0.6,1,1.3,1.9,2.3,2.6c0.8,0.5,1.8,1,3,1.3c1.3,0.4,2.7,0.6,4.1,0.6
						c2.2,0,4.1-0.3,5.8-0.9c1.6-0.6,2.9-1.5,3.7-2.5c0.8-1.1,1.3-2.5,1.6-4.3l-4.6-0.6c-0.2,1.4-0.8,2.5-1.8,3.3
						c-1,0.8-2.5,1.2-4.3,1.2c-2.2,0-3.7-0.4-4.6-1.1c-0.9-0.7-1.4-1.6-1.4-2.5c0-0.6,0.2-1.2,0.6-1.7c0.4-0.5,1-0.9,1.8-1.3
						c0.5-0.2,1.8-0.6,4.2-1.2c3.3-0.9,5.7-1.6,7-2.2c1.3-0.6,2.3-1.4,3.1-2.5c0.8-1.1,1.1-2.4,1.1-4c0-1.6-0.4-3.1-1.4-4.4
						c-0.9-1.4-2.3-2.5-4-3.2c-1.7-0.8-3.7-1.1-5.9-1.1c-3.6,0-6.4,0.8-8.3,2.2C456.2,233.3,455,235.5,454.5,238.5"/>
				</g>
				<g id="g138" transform="translate(829.1211,25.083)">
					<path id="path140" class="st1" d="M454.5,238.5l0.6-4.2c-1.3-0.3-2.5-0.4-3.5-0.4c-1.7,0-3.1,0.3-4,0.8c-0.9,0.5-1.6,1.3-2,2.1
						c-0.4,0.9-0.6,2.7-0.6,5.5v16h-3.5v3.7h3.5v6.9l4.7,2.8V262h4.8v-3.7h-4.8v-16.2c0-1.3,0.1-2.2,0.2-2.6
						c0.2-0.4,0.4-0.7,0.8-0.9c0.4-0.2,0.9-0.4,1.6-0.4C453,238.3,453.6,238.4,454.5,238.5"/>
				</g>
				<g id="g142" transform="translate(851.5215,34.8232)">
					<path id="path144" class="st1" d="M454.5,238.5c-1.7-0.7-4.3-1.3-7.7-1.8c-1.9-0.3-3.3-0.6-4.1-0.9c-0.8-0.3-1.4-0.8-1.9-1.5
						c-0.4-0.7-0.7-1.4-0.7-2.2c0-1.3,0.5-2.3,1.4-3.2c0.9-0.8,2.3-1.2,4.2-1.2c1.8,0,3.4,0.4,4.9,1.2c1.4,0.8,2.5,1.9,3.1,3.3
						c0.5,1.1,0.8,2.6,0.8,4.7L454.5,238.5z M454.9,228c-1.7-1.5-3.4-2.5-5-3.1c-1.6-0.6-3.3-0.9-5.2-0.9c-3.1,0-5.4,0.8-7.1,2.2
						c-1.6,1.5-2.5,3.4-2.5,5.7c0,1.3,0.3,2.6,0.9,3.7c0.6,1.1,1.4,2,2.4,2.7c1,0.7,2.1,1.2,3.4,1.6c0.9,0.2,2.3,0.5,4.2,0.7
						c3.8,0.5,6.6,1,8.4,1.6c0,0.6,0,1,0,1.2c0,1.9-0.4,3.2-1.3,4c-1.2,1-3,1.6-5.4,1.6c-2.2,0-3.8-0.4-4.9-1.2
						c-1.1-0.8-1.8-2.1-2.3-4.1l-4.7,0.6c0.4,1.9,1.1,3.5,2.1,4.8c1,1.2,2.4,2.1,4.2,2.8c1.8,0.6,3.9,1,6.3,1c2.4,0,4.3-0.3,5.8-0.8
						c1.5-0.6,2.6-1.3,3.3-2.1c0.7-0.8,1.2-1.9,1.5-3.2c0.2-0.8,0.2-2.2,0.2-4.3v-6.3c0-4.4,0.1-7.1,0.3-8.3
						c0.2-1.2,0.6-2.3,1.1-3.3h-4.8C455.3,225.6,455,226.7,454.9,228"/>
				</g>
				<g id="g146" transform="translate(884.1641,42.2715)">
					<path id="path148" class="st1" d="M454.5,238.5h10.9c2.3,0,4.1,0.2,5.4,0.7c1.3,0.5,2.3,1.2,3,2.3c0.7,1.1,1,2.2,1,3.4
						c0,1.8-0.7,3.3-1.9,4.5c-1.3,1.2-3.4,1.8-6.2,1.8h-12.1V238.5z M449.4,217.1v38.3h17c3.4,0,6-0.3,7.8-1
						c1.8-0.7,3.2-1.9,4.2-3.6c1.1-1.7,1.6-3.7,1.6-5.8c0-2.7-0.9-5-2.6-6.9c-1.7-1.9-4.4-3.1-8.1-3.6c1.3-0.6,2.3-1.3,3-1.9
						c1.5-1.4,2.9-3,4.2-5.1l6.6-10.4h-6.3l-5.1,8c-1.5,2.3-2.7,4.1-3.7,5.3c-0.9,1.2-1.8,2.1-2.5,2.6c-0.8,0.5-1.5,0.8-2.3,1
						c-0.6,0.1-1.5,0.2-2.8,0.2h-5.9v-17H449.4z"/>
				</g>
				<path id="path150" class="st1" d="M1371.5,287.1h4.7v-27.7h-4.7V287.1z M1371.5,297.7h4.7v-5.3h-4.7V297.7z"/>
				<g id="g152" transform="translate(947.1016,31.0801)">
					<path id="path154" class="st1" d="M454.5,238.5l4.6-0.6c-0.5-3.2-1.8-5.7-3.9-7.5c-2.1-1.8-4.6-2.7-7.7-2.7
						c-3.8,0-6.9,1.2-9.2,3.7c-2.3,2.5-3.5,6-3.5,10.7c0,3,0.5,5.6,1.5,7.9c1,2.2,2.5,3.9,4.5,5.1c2,1.1,4.2,1.7,6.6,1.7
						c3,0,5.5-0.8,7.4-2.3c1.9-1.5,3.1-3.7,3.7-6.6l-4.6-0.6c-0.4,1.9-1.2,3.3-2.3,4.2c-1.1,0.9-2.4,1.4-4,1.4
						c-2.3,0-4.3-0.8-5.8-2.5c-1.5-1.7-2.2-4.4-2.2-8.1c0-3.7,0.7-6.4,2.1-8.1c1.4-1.7,3.3-2.6,5.6-2.6c1.9,0,3.4,0.6,4.6,1.7
						C453.4,234.4,454.2,236.1,454.5,238.5"/>
				</g>
				<g id="g156" transform="translate(973.4746,34.8232)">
					<path id="path158" class="st1" d="M454.5,238.5c-1.7-0.7-4.3-1.3-7.7-1.8c-1.9-0.3-3.3-0.6-4.1-0.9c-0.8-0.3-1.4-0.8-1.8-1.5
						c-0.4-0.7-0.7-1.4-0.7-2.2c0-1.3,0.5-2.3,1.4-3.2c1-0.8,2.4-1.2,4.2-1.2c1.8,0,3.4,0.4,4.9,1.2c1.4,0.8,2.4,1.9,3.1,3.3
						c0.5,1.1,0.8,2.6,0.8,4.7L454.5,238.5z M454.9,228c-1.7-1.5-3.4-2.5-5-3.1c-1.6-0.6-3.3-0.9-5.2-0.9c-3.1,0-5.4,0.8-7.1,2.2
						c-1.6,1.5-2.5,3.4-2.5,5.7c0,1.3,0.3,2.6,0.9,3.7c0.6,1.1,1.4,2,2.4,2.7c1,0.7,2.1,1.2,3.4,1.6c0.9,0.2,2.3,0.5,4.2,0.7
						c3.8,0.5,6.6,1,8.4,1.6c0,0.6,0,1,0,1.2c0,1.9-0.4,3.2-1.3,4c-1.2,1-3,1.6-5.4,1.6c-2.2,0-3.8-0.4-4.9-1.2
						c-1.1-0.8-1.8-2.1-2.3-4.1l-4.7,0.6c0.4,1.9,1.1,3.5,2.1,4.8c1,1.2,2.4,2.1,4.2,2.8c1.8,0.6,3.9,1,6.3,1c2.4,0,4.3-0.3,5.8-0.8
						c1.5-0.6,2.6-1.3,3.3-2.1c0.7-0.8,1.2-1.9,1.5-3.2c0.2-0.8,0.3-2.2,0.3-4.3v-6.3c0-4.4,0.1-7.1,0.3-8.3
						c0.2-1.2,0.6-2.3,1.1-3.3h-4.9C455.3,225.6,455,226.7,454.9,228"/>
				</g>
				<g id="g160" transform="translate(567.1475,121.3643)">
					<path id="path162" class="st1" d="M454.5,238.5v-5h-97.9v5h6.2c5.4,0,9.8,1,13.1,2.9c2.4,1.3,4.2,3.5,5.5,6.7
						c1,2.2,1.5,8,1.5,17.5v123.7c0,9.6-0.5,15.6-1.5,18c-1,2.4-3.1,4.5-6.2,6.3c-3.1,1.8-7.2,2.7-12.5,2.7h-6.2v5h97.9v-5h-6.2
						c-5.4,0-9.8-1-13.1-2.9c-2.4-1.3-4.3-3.5-5.6-6.7c-1-2.2-1.5-8-1.5-17.5V265.5c0-9.6,0.5-15.6,1.6-18c1.1-2.4,3.1-4.5,6.2-6.3
						c3.1-1.8,7.2-2.7,12.4-2.7H454.5z"/>
				</g>
				<g id="g164" transform="translate(674.5605,149.8877)">
					<path id="path166" class="st1" d="M454.5,238.5l4.3-3.3c-6.1-11.5-13.7-20-22.7-25.6c-9.1-5.6-18.7-8.4-29-8.4
						c-17.2,0-31,6.5-41.3,19.5c-10.3,13-15.5,28.6-15.5,46.9c0,17.6,4.7,33.1,14.2,46.5c11.4,16.2,27.1,24.2,47,24.2
						c13.4,0,24.1-3.4,32-10.1c7.9-6.7,11.8-14.3,11.8-22.6c0-5.3-1.6-9.5-4.8-12.6c-3.2-3.1-7.4-4.7-12.6-4.7
						c-5.5,0-10,1.8-13.6,5.4c-3.6,3.6-5.8,10.1-6.6,19.3c-0.6,5.8-1.9,9.9-4,12.2c-2.1,2.3-4.6,3.5-7.5,3.5
						c-4.5,0-8.2-2.3-11.4-7.1c-4.8-7.1-7.2-18-7.2-32.6c0-12.2,1.9-23.8,5.8-34.9c3.9-11.1,9.2-19.4,15.9-24.8c5.1-4,11.1-6,18-6
						c4.5,0,8.8,1.1,12.9,3.2C444.2,228.6,449,232.6,454.5,238.5"/>
				</g>
				<g id="g168" transform="translate(759.5654,119.6738)">
					<path id="path170" class="st1" d="M454.5,238.5c4.1-3.4,9.9-5.2,17.3-5.2c6.3,0,11.9,1.5,16.8,4.6c4.9,3.1,9.7,8.1,14.3,14.9
						l-4.2,3.4c-2.5-3.5-4.9-5.2-7.3-5.2c-1.2,0-2.2,0.4-3.1,1.1c-0.9,0.7-1.6,1.9-2.1,3.4c-0.5,1.5-0.7,5.2-0.7,11.2V317
						c0,13.9-0.6,22.9-1.9,26.7c-2.1,6.1-6.8,11.8-13.9,17c-7.2,5.2-16.9,7.8-29.2,7.8c-10.2,0-20-1.6-29.4-4.8
						c-9.4-3.2-16.8-7.9-22-13.9c-5.3-6-7.9-12.4-7.9-19c0-4.7,1.9-8.8,5.9-12.3c3.9-3.5,8.8-5.2,14.6-5.2c5.5,0,9.8,1.6,13.2,4.7
						c3.4,3.2,5.1,7,5.1,11.5c0,3.7-1.8,7.5-5.3,11.5c-2.6,2.9-3.9,5.2-3.9,7.2c0,2.2,1.2,4.1,3.6,5.8c3.9,2.7,8.8,4,14.9,4
						c3.7,0,7.1-0.9,10.1-2.8c3-1.9,5-4.1,6.1-6.6c1-2.5,1.6-8.7,1.6-18.4v-13c-28.6-13.1-47.1-23.7-55.6-31.6
						c-8.5-7.9-12.7-16.8-12.7-26.7c0-7.3,2.5-13.4,7.3-18.2c4.9-4.9,11.1-7.3,18.5-7.3c12.6,0,26.8,6.9,42.6,20.8
						C447.8,247.2,450.4,241.9,454.5,238.5 M430.8,256.6c-4.2,0-7.4,1.2-9.8,3.7c-3.1,3.2-4.6,7-4.6,11.2c0,5.1,1.8,10.1,5.4,15.1
						c5.5,7.5,13.8,14.5,25.1,21.1v-43.4C440.8,259.2,435.4,256.6,430.8,256.6"/>
				</g>
				<g id="g172" transform="translate(864.5557,231.9961)">
					<path id="path174" class="st1" d="M454.5,238.5l0.4-89.5c0-8.7,0.9-14.2,2.7-16.4c3-3.4,8.3-5,16.2-4.7v-5h-76.8v5
						c5.9,0.1,10,0.7,12.5,2c2.5,1.2,4.2,3,5.1,5.2c0.9,2.2,1.4,6.9,1.4,13.9v89.5h-18.7v13.7H416v9.6v6.5
						c0,13.3,4.9,24.4,14.6,33.3c9.8,8.9,22.9,13.3,39.6,13.3c11.4,0,19.8-2.1,25.3-6.3c5.5-4.2,8.2-8.9,8.2-14.1
						c0-4.1-1.7-7.7-5.1-10.8c-3.4-3.1-7.9-4.6-13.6-4.6c-4.8,0-8.6,1.2-11.4,3.7c-2.8,2.5-4.2,5.3-4.2,8.3c0,0.8,0.3,2.5,0.8,5.1
						c0.3,1.6,0.5,3,0.5,4.4c0,1.9-0.6,3.4-1.7,4.3c-1.5,1.4-3.3,2.1-5.4,2.1c-2.7,0-4.9-1.1-6.7-3.3c-1.8-2.2-2.7-5.8-2.7-10.7
						l0.1-24.4l0.1-16.6h19.4v-13.7H454.5z"/>
				</g>
				<g id="g176" transform="translate(981.8242,233.6436)">
					<path id="path178" class="st1" d="M454.5,238.5c-9.7,10.7-21.1,16.1-34.2,16.1c-15.7,0-29.5-6.4-41.2-19.2
						c-11.7-12.8-17.5-30-17.5-51.5c0-17.6,4-32.4,11.9-44.2c9.9-14.8,24.5-22.1,43.7-22.1c11.2,0,21,3,29.6,9
						c8.5,6,16.3,16.1,23.3,30.5l-4.7,3.1c-5.2-8.1-10.1-13.7-14.7-16.8c-4.6-3.1-9.6-4.7-15.3-4.7c-9,0-16.8,3.8-23.2,11.5
						c-8.4,10-13,23.6-13.9,40.7h71.8C469.4,211.9,464.2,227.8,454.5,238.5 M397.7,199.9v4.8c0,14.3,2.8,25.6,8.3,33.8
						c3.1,4.7,7.1,7.1,12,7.1c3.3,0,5.9-0.8,7.8-2.5c3.5-2.9,6-7.1,7.7-12.6c1.6-5.5,2.5-15.7,2.5-30.6H397.7z"/>
				</g>
				<path id="path180" class="st1" d="M1447.7,317.9H679.5v10.6h768.3V317.9z"/>
				<g id="g182" transform="translate(267.1836,231.584)">
					<path id="path184" class="st1" d="M454.5,238.5V116.7c0,0-30.3,4.5-42.3,35.6c-2.1,7.5-13.2,29,2.1,56.4
						C429.6,236,454.5,238.5,454.5,238.5"/>
				</g>
				<g id="g186" transform="translate(283.6143,109.5439)">
					<path id="path188" class="st1" d="M454.5,238.5l0.1,121.8c0,0,30.3-4.6,42.3-35.6c2.1-7.5,13.3-29-2.1-56.4
						C479.4,241,454.5,238.5,454.5,238.5"/>
				</g>
				<g id="g190" transform="translate(390.9287,231.6738)">
					<path id="path192" class="st1" d="M454.5,238.5V116.7c0,0-30.3,4.6-42.3,35.6c-2.1,7.5-13.3,29,2.1,56.4
						C429.7,236,454.5,238.5,454.5,238.5"/>
				</g>
				<g id="g194" transform="translate(407.3706,109.6328)">
					<path id="path196" class="st1" d="M454.5,238.5l0.1,121.8c0,0,30.3-4.6,42.3-35.7c2.1-7.5,13.2-29-2.1-56.4
						C479.4,241,454.5,238.5,454.5,238.5"/>
				</g>
				<path id="path198" class="st1" d="M688.7,297.7h5.1v-38.3h-5.1V297.7z"/>
				<g id="g200" transform="translate(247.542,20.8779)">
					<path id="path202" class="st1" d="M454.5,238.5v27.7h4.2v-3.9c2,3.1,5,4.6,8.8,4.6c1.7,0,3.2-0.3,4.6-0.9
						c1.4-0.6,2.5-1.4,3.1-2.4c0.7-1,1.2-2.1,1.5-3.5c0.2-0.9,0.3-2.4,0.3-4.6v-17h-4.7v16.9c0,1.9-0.2,3.4-0.6,4.3
						c-0.4,1-1,1.7-1.9,2.3c-0.9,0.5-2,0.8-3.3,0.8c-2,0-3.7-0.6-5.2-1.9c-1.5-1.3-2.2-3.7-2.2-7.2v-15.1H454.5z"/>
				</g>
				<g id="g204" transform="translate(275.4551,29.1973)">
					<path id="path206" class="st1" d="M454.5,238.5l4.6,0.7c0.2-1.9,1-3.3,2.2-4.3c1.2-1,2.9-1.5,5-1.5c2.2,0,3.8,0.5,4.8,1.3
						c1,0.9,1.6,1.9,1.6,3.1c0,1.1-0.4,1.9-1.4,2.5c-0.6,0.4-2.2,0.9-4.8,1.6c-3.5,0.9-5.9,1.6-7.2,2.2c-1.4,0.7-2.4,1.5-3,2.6
						c-0.7,1.1-1,2.4-1,3.7c0,1.2,0.3,2.4,0.9,3.4c0.6,1,1.3,1.9,2.3,2.6c0.7,0.5,1.7,1,3,1.3c1.3,0.4,2.6,0.6,4.1,0.6
						c2.2,0,4.1-0.3,5.8-0.9c1.7-0.6,2.9-1.5,3.7-2.5c0.8-1.1,1.3-2.5,1.6-4.3l-4.6-0.6c-0.2,1.4-0.8,2.5-1.8,3.3
						c-1,0.8-2.4,1.2-4.3,1.2c-2.2,0-3.7-0.4-4.6-1.1c-0.9-0.7-1.4-1.6-1.4-2.5c0-0.6,0.2-1.2,0.6-1.7c0.4-0.5,1-0.9,1.8-1.3
						c0.5-0.2,1.9-0.6,4.2-1.2c3.3-0.9,5.7-1.6,7-2.2c1.3-0.6,2.3-1.4,3.1-2.5c0.8-1.1,1.1-2.4,1.1-4c0-1.6-0.5-3.1-1.4-4.4
						c-0.9-1.4-2.2-2.5-4-3.2c-1.7-0.8-3.7-1.1-5.9-1.1c-3.6,0-6.4,0.8-8.3,2.2C456.2,233.3,455,235.5,454.5,238.5"/>
				</g>
				<g id="g208" transform="translate(314.3369,25.083)">
					<path id="path210" class="st1" d="M454.5,238.5l0.6-4.2c-1.3-0.3-2.5-0.4-3.6-0.4c-1.7,0-3,0.3-4,0.8c-0.9,0.5-1.6,1.3-2,2.1
						c-0.4,0.9-0.6,2.7-0.6,5.5v16h-3.4v3.7h3.4v6.9l4.7,2.8V262h4.8v-3.7h-4.8v-16.2c0-1.3,0.1-2.2,0.3-2.6
						c0.2-0.4,0.4-0.7,0.8-0.9c0.4-0.2,0.9-0.4,1.6-0.4C452.9,238.3,453.6,238.4,454.5,238.5"/>
				</g>
				<path id="path212" class="st1" d="M773.5,287.1h4.7v-27.7h-4.7V287.1z M773.5,297.7h4.7v-5.3h-4.7V297.7z"/>
				<g id="g214" transform="translate(341.0986,25.083)">
					<path id="path216" class="st1" d="M454.5,238.5l0.6-4.2c-1.3-0.3-2.5-0.4-3.6-0.4c-1.7,0-3,0.3-4,0.8c-0.9,0.5-1.6,1.3-2,2.1
						c-0.4,0.9-0.6,2.7-0.6,5.5v16h-3.5v3.7h3.5v6.9l4.7,2.8V262h4.8v-3.7h-4.8v-16.2c0-1.3,0.1-2.2,0.2-2.6
						c0.2-0.4,0.4-0.7,0.8-0.9c0.4-0.2,0.9-0.4,1.6-0.4C453,238.3,453.6,238.4,454.5,238.5"/>
				</g>
				<g id="g218" transform="translate(363.8936,20.8779)">
					<path id="path220" class="st1" d="M454.5,238.5v4.1c-2.2-3.2-5.1-4.7-8.8-4.7c-1.7,0-3.2,0.3-4.6,0.9c-1.4,0.6-2.5,1.4-3.2,2.4
						c-0.7,1-1.2,2.1-1.4,3.5c-0.2,0.9-0.3,2.4-0.3,4.4v17.2h4.7v-15.4c0-2.4,0.1-4.1,0.3-5c0.3-1.2,0.9-2.2,1.9-2.9
						c1-0.7,2.2-1.1,3.6-1.1c1.4,0,2.7,0.4,4,1.1c1.2,0.7,2.1,1.7,2.6,3c0.5,1.3,0.8,3.1,0.8,5.4v14.8h4.7v-27.7H454.5z"/>
				</g>
				<g id="g222" transform="translate(385.7485,25.083)">
					<path id="path224" class="st1" d="M454.5,238.5l0.6-4.2c-1.3-0.3-2.5-0.4-3.6-0.4c-1.7,0-3,0.3-4,0.8c-0.9,0.5-1.6,1.3-2,2.1
						c-0.4,0.9-0.6,2.7-0.6,5.5v16h-3.4v3.7h3.4v6.9l4.7,2.8V262h4.8v-3.7h-4.8v-16.2c0-1.3,0.1-2.2,0.2-2.6
						c0.2-0.4,0.4-0.7,0.8-0.9c0.4-0.2,0.9-0.4,1.6-0.4C452.9,238.3,453.6,238.4,454.5,238.5"/>
				</g>
				<g id="g226" transform="translate(393.498,34.709)">
					<path id="path228" class="st1" d="M454.5,238.5c0-3.5,0.8-6.2,2.3-8c1.6-1.8,3.5-2.7,5.8-2.7c2.3,0,4.3,0.9,5.8,2.7
						c1.5,1.8,2.3,4.5,2.3,8.1c0,3.4-0.8,6-2.3,7.8c-1.6,1.8-3.5,2.6-5.8,2.6c-2.3,0-4.3-0.9-5.8-2.6
						C455.3,244.7,454.5,242.1,454.5,238.5 M449.6,238.5c0,5.1,1.4,8.9,4.3,11.4c2.4,2.1,5.3,3.1,8.7,3.1c3.8,0,6.9-1.3,9.4-3.7
						c2.4-2.5,3.6-6,3.6-10.4c0-3.6-0.5-6.4-1.6-8.4c-1.1-2-2.6-3.6-4.7-4.8c-2-1.1-4.3-1.7-6.7-1.7c-3.9,0-7,1.2-9.4,3.7
						C450.8,230.3,449.6,233.9,449.6,238.5"/>
				</g>
				<g id="g230" transform="translate(438.1582,34.6934)">
					<path id="path232" class="st1" d="M454.5,238.5c0-3.5,0.7-6.2,2.3-7.9c1.5-1.8,3.3-2.7,5.3-2.7c2.1,0,3.8,0.9,5.3,2.5
						c1.4,1.7,2.2,4.2,2.2,7.7c0,3.8-0.7,6.6-2.2,8.4c-1.5,1.8-3.3,2.7-5.4,2.7c-2.1,0-3.9-0.8-5.3-2.6
						C455.2,244.9,454.5,242.2,454.5,238.5 M469.4,224.7v3.5c-1.8-2.7-4.4-4.1-7.8-4.1c-2.2,0-4.3,0.6-6.1,1.8
						c-1.9,1.2-3.3,2.9-4.3,5.1c-1,2.2-1.5,4.7-1.5,7.5c0,2.8,0.5,5.3,1.4,7.5c0.9,2.3,2.3,4,4.1,5.2c1.9,1.2,3.9,1.8,6.2,1.8
						c1.7,0,3.2-0.4,4.5-1.1c1.3-0.7,2.4-1.6,3.2-2.8V263h4.7v-38.3H469.4z"/>
				</g>
				<g id="g234" transform="translate(468.2944,37.4121)">
					<path id="path236" class="st1" d="M454.5,238.5h15.6c-0.2,2.4-0.8,4.1-1.8,5.3c-1.5,1.8-3.5,2.7-5.9,2.7c-2.2,0-4-0.7-5.5-2.2
						C455.5,242.9,454.7,240.9,454.5,238.5 M470,230.9l4.8-0.6c-0.8-2.8-2.2-5-4.3-6.6c-2.1-1.6-4.7-2.4-8-2.4
						c-4.1,0-7.3,1.3-9.7,3.7c-2.4,2.5-3.6,6-3.6,10.5c0,4.7,1.2,8.3,3.6,10.9c2.4,2.6,5.5,3.9,9.4,3.9c3.7,0,6.7-1.3,9.1-3.8
						c2.4-2.5,3.5-6.1,3.5-10.6c0-0.3,0-0.7,0-1.3h-20.7c0.2-3.1,1-5.4,2.6-7c1.5-1.6,3.5-2.5,5.8-2.5c1.7,0,3.2,0.5,4.4,1.4
						C468.3,227.5,469.3,228.9,470,230.9"/>
				</g>
				<path id="path238" class="st1" d="M949,297.7h4.7v-38.3H949V297.7z"/>
				<g id="g240" transform="translate(549.2021,34.3145)">
					<path id="path242" class="st1" d="M454.5,238.5l5.1-1.3c-1.1-4.2-3-7.3-5.7-9.5c-2.7-2.2-6.1-3.3-10.1-3.3
						c-4.1,0-7.5,0.8-10.1,2.5c-2.6,1.7-4.6,4.1-5.9,7.3c-1.3,3.2-2,6.6-2,10.3c0,4,0.8,7.5,2.3,10.4c1.5,3,3.7,5.2,6.5,6.8
						c2.8,1.5,5.9,2.3,9.3,2.3c3.8,0,7-1,9.7-2.9c2.6-2,4.4-4.7,5.5-8.2l-5-1.2c-0.9,2.8-2.2,4.8-3.9,6.1c-1.7,1.2-3.8,1.9-6.4,1.9
						c-2.9,0-5.4-0.7-7.4-2.1c-2-1.4-3.4-3.3-4.2-5.7c-0.8-2.4-1.2-4.8-1.2-7.3c0-3.3,0.5-6.1,1.4-8.5c0.9-2.4,2.4-4.2,4.4-5.4
						c2-1.2,4.2-1.8,6.5-1.8c2.8,0,5.2,0.8,7.2,2.5C452.5,232.8,453.8,235.3,454.5,238.5"/>
				</g>
				<g id="g244" transform="translate(577.749,34.8232)">
					<path id="path246" class="st1" d="M454.5,238.5c-1.7-0.7-4.3-1.3-7.7-1.8c-1.9-0.3-3.3-0.6-4.1-0.9c-0.8-0.3-1.4-0.8-1.9-1.5
						c-0.4-0.7-0.6-1.4-0.6-2.2c0-1.3,0.5-2.3,1.4-3.2c1-0.8,2.4-1.2,4.2-1.2c1.8,0,3.4,0.4,4.9,1.2c1.4,0.8,2.5,1.9,3.1,3.3
						c0.5,1.1,0.8,2.6,0.8,4.7L454.5,238.5z M454.9,228c-1.7-1.5-3.4-2.5-5-3.1c-1.6-0.6-3.4-0.9-5.2-0.9c-3,0-5.4,0.8-7.1,2.2
						c-1.6,1.5-2.5,3.4-2.5,5.7c0,1.3,0.3,2.6,0.9,3.7c0.6,1.1,1.4,2,2.4,2.7c1,0.7,2.1,1.2,3.4,1.6c0.9,0.2,2.3,0.5,4.2,0.7
						c3.8,0.5,6.6,1,8.4,1.6c0,0.6,0,1,0,1.2c0,1.9-0.5,3.2-1.3,4c-1.2,1-3,1.6-5.4,1.6c-2.2,0-3.9-0.4-4.9-1.2
						c-1.1-0.8-1.8-2.1-2.3-4.1l-4.7,0.6c0.4,1.9,1.1,3.5,2.1,4.8c1,1.2,2.3,2.1,4.2,2.8c1.8,0.6,3.9,1,6.3,1c2.4,0,4.3-0.3,5.8-0.8
						c1.5-0.6,2.6-1.3,3.3-2.1c0.7-0.8,1.2-1.9,1.5-3.2c0.1-0.8,0.2-2.2,0.2-4.3v-6.3c0-4.4,0.1-7.1,0.3-8.3
						c0.2-1.2,0.6-2.3,1.1-3.3h-4.9C455.4,225.6,455,226.7,454.9,228"/>
				</g>
				<g id="g248" transform="translate(590.8437,20.8779)">
					<path id="path250" class="st1" d="M454.5,238.5v24h-4.2v3.7h4.2v3c0,1.9,0.2,3.2,0.5,4.1c0.5,1.2,1.3,2.2,2.4,3
						c1.2,0.8,2.8,1.1,4.8,1.1c1.3,0,2.8-0.2,4.4-0.5l-0.7-4.1c-1,0.2-1.9,0.3-2.8,0.3c-1.4,0-2.4-0.3-3-0.9
						c-0.6-0.6-0.9-1.7-0.9-3.4v-2.6h5.4v-3.7h-5.4v-24H454.5z"/>
				</g>
				<g id="g252" transform="translate(612.1392,52.043)">
					<path id="path254" class="st1" d="M454.5,238.5l3.4,7.3h6.2l-5.7-7.3H454.5z M450.5,223.9h15.6c-0.2,2.4-0.8,4.1-1.8,5.3
						c-1.5,1.8-3.4,2.7-5.8,2.7c-2.2,0-4-0.7-5.5-2.2C451.5,228.2,450.7,226.3,450.5,223.9 M466,216.3l4.8-0.6
						c-0.8-2.8-2.2-5-4.3-6.6c-2.1-1.6-4.7-2.4-8-2.4c-4,0-7.3,1.3-9.6,3.7c-2.4,2.5-3.6,6-3.6,10.5c0,4.7,1.2,8.3,3.6,10.9
						c2.4,2.6,5.5,3.9,9.4,3.9c3.7,0,6.7-1.3,9.1-3.8c2.4-2.5,3.5-6.1,3.5-10.6c0-0.3,0-0.7,0-1.3h-20.7c0.2-3.1,1-5.4,2.6-7
						c1.6-1.6,3.5-2.5,5.8-2.5c1.7,0,3.2,0.5,4.4,1.4C464.3,212.8,465.3,214.3,466,216.3"/>
				</g>
				<g id="g256" transform="translate(652.3965,34.6934)">
					<path id="path258" class="st1" d="M454.5,238.5c0-3.5,0.7-6.2,2.2-7.9c1.5-1.8,3.3-2.7,5.3-2.7c2.1,0,3.8,0.9,5.3,2.5
						c1.4,1.7,2.2,4.2,2.2,7.7c0,3.8-0.7,6.6-2.2,8.4c-1.5,1.8-3.3,2.7-5.4,2.7c-2.1,0-3.9-0.8-5.3-2.6
						C455.2,244.9,454.5,242.2,454.5,238.5 M469.4,224.7v3.5c-1.8-2.7-4.4-4.1-7.8-4.1c-2.2,0-4.3,0.6-6.1,1.8
						c-1.8,1.2-3.3,2.9-4.3,5.1c-1,2.2-1.5,4.7-1.5,7.5c0,2.8,0.5,5.3,1.4,7.5c0.9,2.3,2.3,4,4.2,5.2c1.8,1.2,3.9,1.8,6.2,1.8
						c1.7,0,3.2-0.4,4.5-1.1c1.3-0.7,2.4-1.6,3.2-2.8V263h4.7v-38.3H469.4z"/>
				</g>
				<g id="g260" transform="translate(682.5537,37.4121)">
					<path id="path262" class="st1" d="M454.5,238.5h15.6c-0.2,2.4-0.8,4.1-1.8,5.3c-1.5,1.8-3.5,2.7-5.9,2.7c-2.2,0-4-0.7-5.5-2.2
						C455.5,242.9,454.7,240.9,454.5,238.5 M470,230.9l4.8-0.6c-0.8-2.8-2.2-5-4.3-6.6c-2.1-1.6-4.7-2.4-7.9-2.4
						c-4.1,0-7.3,1.3-9.7,3.7c-2.4,2.5-3.6,6-3.6,10.5c0,4.7,1.2,8.3,3.6,10.9c2.4,2.6,5.5,3.9,9.4,3.9c3.7,0,6.7-1.3,9.1-3.8
						c2.3-2.5,3.5-6.1,3.5-10.6c0-0.3,0-0.7,0-1.3h-20.7c0.2-3.1,1-5.4,2.6-7c1.6-1.6,3.5-2.5,5.8-2.5c1.8,0,3.2,0.5,4.5,1.4
						C468.3,227.5,469.3,228.9,470,230.9"/>
				</g>
				<g id="g264" transform="translate(751.5645,34.3145)">
					<path id="path266" class="st1" d="M454.5,238.5l5.1-1.3c-1.1-4.2-3-7.3-5.7-9.5c-2.7-2.2-6.1-3.3-10.1-3.3
						c-4.1,0-7.5,0.8-10.1,2.5c-2.6,1.7-4.6,4.1-5.9,7.3c-1.3,3.2-2,6.6-2,10.3c0,4,0.8,7.5,2.3,10.4c1.5,3,3.7,5.2,6.5,6.8
						c2.8,1.5,5.9,2.3,9.3,2.3c3.8,0,7.1-1,9.7-2.9c2.6-2,4.4-4.7,5.5-8.2l-5-1.2c-0.9,2.8-2.2,4.8-3.9,6.1
						c-1.7,1.2-3.8,1.9-6.4,1.9c-2.9,0-5.4-0.7-7.4-2.1c-2-1.4-3.4-3.3-4.2-5.7c-0.8-2.4-1.2-4.8-1.2-7.3c0-3.3,0.5-6.1,1.4-8.5
						c0.9-2.4,2.4-4.2,4.4-5.4c2-1.2,4.2-1.8,6.5-1.8c2.8,0,5.2,0.8,7.2,2.5C452.5,232.8,453.8,235.3,454.5,238.5"/>
				</g>
				<g id="g268" transform="translate(765.4473,34.709)">
					<path id="path270" class="st1" d="M454.5,238.5c0-3.5,0.8-6.2,2.3-8c1.6-1.8,3.5-2.7,5.8-2.7c2.3,0,4.3,0.9,5.8,2.7
						c1.5,1.8,2.3,4.5,2.3,8.1c0,3.4-0.8,6-2.4,7.8c-1.5,1.8-3.5,2.6-5.8,2.6c-2.4,0-4.3-0.9-5.8-2.6
						C455.3,244.7,454.5,242.1,454.5,238.5 M449.7,238.5c0,5.1,1.4,8.9,4.3,11.4c2.4,2.1,5.3,3.1,8.7,3.1c3.8,0,6.9-1.3,9.4-3.7
						c2.4-2.5,3.6-6,3.6-10.4c0-3.6-0.5-6.4-1.6-8.4c-1.1-2-2.7-3.6-4.7-4.8c-2-1.1-4.3-1.7-6.7-1.7c-3.9,0-7,1.2-9.4,3.7
						C450.9,230.3,449.7,233.9,449.7,238.5"/>
				</g>
				<g id="g272" transform="translate(790.2129,29.1973)">
					<path id="path274" class="st1" d="M454.5,238.5l4.6,0.7c0.3-1.9,1-3.3,2.2-4.3c1.2-1,2.9-1.5,5-1.5c2.2,0,3.8,0.5,4.8,1.3
						c1,0.9,1.6,1.9,1.6,3.1c0,1.1-0.5,1.9-1.4,2.5c-0.6,0.4-2.2,0.9-4.8,1.6c-3.5,0.9-5.8,1.6-7.2,2.2c-1.3,0.7-2.3,1.5-3,2.6
						c-0.7,1.1-1,2.4-1,3.7c0,1.2,0.3,2.4,0.9,3.4c0.6,1,1.3,1.9,2.3,2.6c0.8,0.5,1.8,1,3,1.3c1.3,0.4,2.7,0.6,4.1,0.6
						c2.2,0,4.1-0.3,5.8-0.9c1.6-0.6,2.9-1.5,3.7-2.5c0.8-1.1,1.3-2.5,1.6-4.3l-4.6-0.6c-0.2,1.4-0.8,2.5-1.8,3.3
						c-1,0.8-2.5,1.2-4.3,1.2c-2.2,0-3.7-0.4-4.6-1.1c-0.9-0.7-1.4-1.6-1.4-2.5c0-0.6,0.2-1.2,0.6-1.7c0.4-0.5,1-0.9,1.8-1.3
						c0.5-0.2,1.8-0.6,4.2-1.2c3.3-0.9,5.7-1.6,7-2.2c1.3-0.6,2.3-1.4,3.1-2.5c0.8-1.1,1.1-2.4,1.1-4c0-1.6-0.4-3.1-1.4-4.4
						c-0.9-1.4-2.3-2.5-4-3.2c-1.7-0.8-3.7-1.1-5.9-1.1c-3.6,0-6.4,0.8-8.3,2.2C456.2,233.3,455,235.5,454.5,238.5"/>
				</g>
				<g id="g276" transform="translate(829.1211,25.083)">
					<path id="path278" class="st1" d="M454.5,238.5l0.6-4.2c-1.3-0.3-2.5-0.4-3.5-0.4c-1.7,0-3.1,0.3-4,0.8c-0.9,0.5-1.6,1.3-2,2.1
						c-0.4,0.9-0.6,2.7-0.6,5.5v16h-3.5v3.7h3.5v6.9l4.7,2.8V262h4.8v-3.7h-4.8v-16.2c0-1.3,0.1-2.2,0.2-2.6
						c0.2-0.4,0.4-0.7,0.8-0.9c0.4-0.2,0.9-0.4,1.6-0.4C453,238.3,453.6,238.4,454.5,238.5"/>
				</g>
				<g id="g280" transform="translate(851.5215,34.8232)">
					<path id="path282" class="st1" d="M454.5,238.5c-1.7-0.7-4.3-1.3-7.7-1.8c-1.9-0.3-3.3-0.6-4.1-0.9c-0.8-0.3-1.4-0.8-1.9-1.5
						c-0.4-0.7-0.7-1.4-0.7-2.2c0-1.3,0.5-2.3,1.4-3.2c0.9-0.8,2.3-1.2,4.2-1.2c1.8,0,3.4,0.4,4.9,1.2c1.4,0.8,2.5,1.9,3.1,3.3
						c0.5,1.1,0.8,2.6,0.8,4.7L454.5,238.5z M454.9,228c-1.7-1.5-3.4-2.5-5-3.1c-1.6-0.6-3.3-0.9-5.2-0.9c-3.1,0-5.4,0.8-7.1,2.2
						c-1.6,1.5-2.5,3.4-2.5,5.7c0,1.3,0.3,2.6,0.9,3.7c0.6,1.1,1.4,2,2.4,2.7c1,0.7,2.1,1.2,3.4,1.6c0.9,0.2,2.3,0.5,4.2,0.7
						c3.8,0.5,6.6,1,8.4,1.6c0,0.6,0,1,0,1.2c0,1.9-0.4,3.2-1.3,4c-1.2,1-3,1.6-5.4,1.6c-2.2,0-3.8-0.4-4.9-1.2
						c-1.1-0.8-1.8-2.1-2.3-4.1l-4.7,0.6c0.4,1.9,1.1,3.5,2.1,4.8c1,1.2,2.4,2.1,4.2,2.8c1.8,0.6,3.9,1,6.3,1c2.4,0,4.3-0.3,5.8-0.8
						c1.5-0.6,2.6-1.3,3.3-2.1c0.7-0.8,1.2-1.9,1.5-3.2c0.2-0.8,0.2-2.2,0.2-4.3v-6.3c0-4.4,0.1-7.1,0.3-8.3
						c0.2-1.2,0.6-2.3,1.1-3.3h-4.8C455.3,225.6,455,226.7,454.9,228"/>
				</g>
				<g id="g284" transform="translate(884.1641,42.2715)">
					<path id="path286" class="st1" d="M454.5,238.5h10.9c2.3,0,4.1,0.2,5.4,0.7c1.3,0.5,2.3,1.2,3,2.3c0.7,1.1,1,2.2,1,3.4
						c0,1.8-0.7,3.3-1.9,4.5c-1.3,1.2-3.4,1.8-6.2,1.8h-12.1V238.5z M449.4,217.1v38.3h17c3.4,0,6-0.3,7.8-1
						c1.8-0.7,3.2-1.9,4.2-3.6c1.1-1.7,1.6-3.7,1.6-5.8c0-2.7-0.9-5-2.6-6.9c-1.7-1.9-4.4-3.1-8.1-3.6c1.3-0.6,2.3-1.3,3-1.9
						c1.5-1.4,2.9-3,4.2-5.1l6.6-10.4h-6.3l-5.1,8c-1.5,2.3-2.7,4.1-3.7,5.3c-0.9,1.2-1.8,2.1-2.5,2.6c-0.8,0.5-1.5,0.8-2.3,1
						c-0.6,0.1-1.5,0.2-2.8,0.2h-5.9v-17H449.4z"/>
				</g>
				<path id="path288" class="st1" d="M1371.5,287.1h4.7v-27.7h-4.7V287.1z M1371.5,297.7h4.7v-5.3h-4.7V297.7z"/>
				<g id="g290" transform="translate(947.1016,31.0801)">
					<path id="path292" class="st1" d="M454.5,238.5l4.6-0.6c-0.5-3.2-1.8-5.7-3.9-7.5c-2.1-1.8-4.6-2.7-7.7-2.7
						c-3.8,0-6.9,1.2-9.2,3.7c-2.3,2.5-3.5,6-3.5,10.7c0,3,0.5,5.6,1.5,7.9c1,2.2,2.5,3.9,4.5,5.1c2,1.1,4.2,1.7,6.6,1.7
						c3,0,5.5-0.8,7.4-2.3c1.9-1.5,3.1-3.7,3.7-6.6l-4.6-0.6c-0.4,1.9-1.2,3.3-2.3,4.2c-1.1,0.9-2.4,1.4-4,1.4
						c-2.3,0-4.3-0.8-5.8-2.5c-1.5-1.7-2.2-4.4-2.2-8.1c0-3.7,0.7-6.4,2.1-8.1c1.4-1.7,3.3-2.6,5.6-2.6c1.9,0,3.4,0.6,4.6,1.7
						C453.4,234.4,454.2,236.1,454.5,238.5"/>
				</g>
				<g id="g294" transform="translate(973.4746,34.8232)">
					<path id="path296" class="st1" d="M454.5,238.5c-1.7-0.7-4.3-1.3-7.7-1.8c-1.9-0.3-3.3-0.6-4.1-0.9c-0.8-0.3-1.4-0.8-1.8-1.5
						c-0.4-0.7-0.7-1.4-0.7-2.2c0-1.3,0.5-2.3,1.4-3.2c1-0.8,2.4-1.2,4.2-1.2c1.8,0,3.4,0.4,4.9,1.2c1.4,0.8,2.4,1.9,3.1,3.3
						c0.5,1.1,0.8,2.6,0.8,4.7L454.5,238.5z M454.9,228c-1.7-1.5-3.4-2.5-5-3.1c-1.6-0.6-3.3-0.9-5.2-0.9c-3.1,0-5.4,0.8-7.1,2.2
						c-1.6,1.5-2.5,3.4-2.5,5.7c0,1.3,0.3,2.6,0.9,3.7c0.6,1.1,1.4,2,2.4,2.7c1,0.7,2.1,1.2,3.4,1.6c0.9,0.2,2.3,0.5,4.2,0.7
						c3.8,0.5,6.6,1,8.4,1.6c0,0.6,0,1,0,1.2c0,1.9-0.4,3.2-1.3,4c-1.2,1-3,1.6-5.4,1.6c-2.2,0-3.8-0.4-4.9-1.2
						c-1.1-0.8-1.8-2.1-2.3-4.1l-4.7,0.6c0.4,1.9,1.1,3.5,2.1,4.8c1,1.2,2.4,2.1,4.2,2.8c1.8,0.6,3.9,1,6.3,1c2.4,0,4.3-0.3,5.8-0.8
						c1.5-0.6,2.6-1.3,3.3-2.1c0.7-0.8,1.2-1.9,1.5-3.2c0.2-0.8,0.3-2.2,0.3-4.3v-6.3c0-4.4,0.1-7.1,0.3-8.3
						c0.2-1.2,0.6-2.3,1.1-3.3h-4.9C455.3,225.6,455,226.7,454.9,228"/>
				</g>
			</g>
		</g>
	</g>
</g>
</svg>
